<mxfile host="app.diagrams.net" modified="2021-12-05T10:23:51.879Z" agent="5.0 (X11)" etag="Nc0CxH8hy8TkAvv6NvKr" version="15.9.1" type="github">
  <diagram id="07RfaLpO1Yo5BUCYS0tG" name="Page-1">
    <mxGraphModel dx="868" dy="593" grid="1" gridSize="10" guides="1" tooltips="1" connect="1" arrows="1" fold="1" page="1" pageScale="1" pageWidth="3300" pageHeight="2339" background="#FCE7CD" math="0" shadow="0">
      <root>
        <mxCell id="0" />
        <mxCell id="1" parent="0" />
        <mxCell id="CMjTgjLuKH6sScpRQb18-6" value="index.js" style="swimlane;fontStyle=0;childLayout=stackLayout;horizontal=1;startSize=30;horizontalStack=0;resizeParent=1;resizeParentMax=0;resizeLast=0;collapsible=1;marginBottom=0;rounded=0;sketch=0;fontColor=#FFFFFF;strokeColor=#FFFFFF;fillColor=#182E3E;" vertex="1" parent="1">
          <mxGeometry x="280" y="440" width="280" height="490" as="geometry" />
        </mxCell>
        <mxCell id="CMjTgjLuKH6sScpRQb18-13" value="navbar.js" style="rounded=0;whiteSpace=wrap;html=1;sketch=0;fontColor=#000000;strokeColor=#BD7000;fillColor=#f0a30a;" vertex="1" parent="CMjTgjLuKH6sScpRQb18-6">
          <mxGeometry y="30" width="280" height="60" as="geometry" />
        </mxCell>
        <mxCell id="CMjTgjLuKH6sScpRQb18-12" value="&lt;div&gt;main.js&lt;/div&gt;" style="whiteSpace=wrap;html=1;aspect=fixed;rounded=0;sketch=0;fontColor=#ffffff;strokeColor=#3A5431;fillColor=#6d8764;" vertex="1" parent="CMjTgjLuKH6sScpRQb18-6">
          <mxGeometry y="90" width="280" height="320" as="geometry" />
        </mxCell>
        <mxCell id="CMjTgjLuKH6sScpRQb18-11" value="&lt;div&gt;footer.js&lt;/div&gt;" style="whiteSpace=wrap;html=1;aspect=fixed;rounded=0;sketch=0;fontColor=#000000;strokeColor=#B09500;fillColor=#e3c800;" vertex="1" parent="CMjTgjLuKH6sScpRQb18-6">
          <mxGeometry y="410" width="280" height="80" as="geometry" />
        </mxCell>
        <mxCell id="CMjTgjLuKH6sScpRQb18-15" value="" style="rounded=0;whiteSpace=wrap;html=1;sketch=0;strokeColor=#d6b656;fillColor=#FFD966;" vertex="1" parent="1">
          <mxGeometry x="640" y="200" width="520" height="60" as="geometry" />
        </mxCell>
        <mxCell id="CMjTgjLuKH6sScpRQb18-18" style="edgeStyle=orthogonalEdgeStyle;curved=0;rounded=1;sketch=0;orthogonalLoop=1;jettySize=auto;html=1;exitX=1;exitY=0.5;exitDx=0;exitDy=0;entryX=0;entryY=0.5;entryDx=0;entryDy=0;strokeColor=#23445D;" edge="1" parent="1" source="CMjTgjLuKH6sScpRQb18-13" target="CMjTgjLuKH6sScpRQb18-15">
          <mxGeometry relative="1" as="geometry" />
        </mxCell>
        <mxCell id="CMjTgjLuKH6sScpRQb18-43" style="edgeStyle=orthogonalEdgeStyle;curved=0;rounded=1;sketch=0;orthogonalLoop=1;jettySize=auto;html=1;exitX=0.5;exitY=0;exitDx=0;exitDy=0;fontSize=24;strokeColor=#23445D;" edge="1" parent="1" source="CMjTgjLuKH6sScpRQb18-19" target="CMjTgjLuKH6sScpRQb18-41">
          <mxGeometry relative="1" as="geometry" />
        </mxCell>
        <mxCell id="CMjTgjLuKH6sScpRQb18-19" value="" style="rounded=1;whiteSpace=wrap;html=1;sketch=0;fontColor=#ffffff;strokeColor=#432D57;fillColor=#76608a;" vertex="1" parent="1">
          <mxGeometry x="870" y="215" width="110" height="30" as="geometry" />
        </mxCell>
        <mxCell id="CMjTgjLuKH6sScpRQb18-33" style="edgeStyle=orthogonalEdgeStyle;curved=0;rounded=1;sketch=0;orthogonalLoop=1;jettySize=auto;html=1;exitX=1;exitY=0.5;exitDx=0;exitDy=0;strokeColor=#23445D;" edge="1" parent="1" source="CMjTgjLuKH6sScpRQb18-20">
          <mxGeometry relative="1" as="geometry">
            <mxPoint x="1200" y="230" as="targetPoint" />
          </mxGeometry>
        </mxCell>
        <mxCell id="CMjTgjLuKH6sScpRQb18-49" style="edgeStyle=orthogonalEdgeStyle;curved=0;rounded=1;sketch=0;orthogonalLoop=1;jettySize=auto;html=1;exitX=0.5;exitY=1;exitDx=0;exitDy=0;fontSize=24;strokeColor=#23445D;entryX=0;entryY=0.5;entryDx=0;entryDy=0;" edge="1" parent="1" source="CMjTgjLuKH6sScpRQb18-20" target="CMjTgjLuKH6sScpRQb18-50">
          <mxGeometry relative="1" as="geometry">
            <mxPoint x="1200" y="310" as="targetPoint" />
          </mxGeometry>
        </mxCell>
        <mxCell id="CMjTgjLuKH6sScpRQb18-20" value="" style="ellipse;whiteSpace=wrap;html=1;aspect=fixed;rounded=0;sketch=0;fontColor=#ffffff;strokeColor=#432D57;fillColor=#76608a;" vertex="1" parent="1">
          <mxGeometry x="1110" y="210" width="40" height="40" as="geometry" />
        </mxCell>
        <mxCell id="CMjTgjLuKH6sScpRQb18-32" style="edgeStyle=orthogonalEdgeStyle;curved=0;rounded=1;sketch=0;orthogonalLoop=1;jettySize=auto;html=1;exitX=0.5;exitY=1;exitDx=0;exitDy=0;strokeColor=#23445D;entryX=1;entryY=0.5;entryDx=0;entryDy=0;" edge="1" parent="1" source="CMjTgjLuKH6sScpRQb18-21" target="CMjTgjLuKH6sScpRQb18-45">
          <mxGeometry relative="1" as="geometry">
            <mxPoint x="1085" y="290" as="targetPoint" />
          </mxGeometry>
        </mxCell>
        <mxCell id="CMjTgjLuKH6sScpRQb18-48" style="edgeStyle=orthogonalEdgeStyle;curved=0;rounded=1;sketch=0;orthogonalLoop=1;jettySize=auto;html=1;exitX=0.5;exitY=0;exitDx=0;exitDy=0;entryX=0.5;entryY=1;entryDx=0;entryDy=0;fontSize=24;strokeColor=#23445D;" edge="1" parent="1" source="CMjTgjLuKH6sScpRQb18-21" target="CMjTgjLuKH6sScpRQb18-47">
          <mxGeometry relative="1" as="geometry" />
        </mxCell>
        <mxCell id="CMjTgjLuKH6sScpRQb18-21" value="" style="ellipse;whiteSpace=wrap;html=1;aspect=fixed;rounded=0;sketch=0;fontColor=#ffffff;strokeColor=#432D57;fillColor=#76608a;" vertex="1" parent="1">
          <mxGeometry x="1070" y="215" width="30" height="30" as="geometry" />
        </mxCell>
        <mxCell id="CMjTgjLuKH6sScpRQb18-37" style="edgeStyle=orthogonalEdgeStyle;curved=0;rounded=1;sketch=0;orthogonalLoop=1;jettySize=auto;html=1;exitX=0.5;exitY=1;exitDx=0;exitDy=0;fontSize=24;strokeColor=#23445D;" edge="1" parent="1" source="CMjTgjLuKH6sScpRQb18-23">
          <mxGeometry relative="1" as="geometry">
            <mxPoint x="670" y="290" as="targetPoint" />
          </mxGeometry>
        </mxCell>
        <mxCell id="CMjTgjLuKH6sScpRQb18-23" value="" style="rounded=1;whiteSpace=wrap;html=1;sketch=0;fontColor=#ffffff;strokeColor=#432D57;fillColor=#76608a;" vertex="1" parent="1">
          <mxGeometry x="650" y="215" width="40" height="30" as="geometry" />
        </mxCell>
        <mxCell id="CMjTgjLuKH6sScpRQb18-38" style="edgeStyle=orthogonalEdgeStyle;curved=0;rounded=1;sketch=0;orthogonalLoop=1;jettySize=auto;html=1;exitX=0.5;exitY=1;exitDx=0;exitDy=0;fontSize=24;strokeColor=#23445D;" edge="1" parent="1" source="CMjTgjLuKH6sScpRQb18-26">
          <mxGeometry relative="1" as="geometry">
            <mxPoint x="720" y="360" as="targetPoint" />
          </mxGeometry>
        </mxCell>
        <mxCell id="CMjTgjLuKH6sScpRQb18-26" value="" style="rounded=1;whiteSpace=wrap;html=1;sketch=0;fontColor=#ffffff;strokeColor=#432D57;fillColor=#76608a;" vertex="1" parent="1">
          <mxGeometry x="700" y="215" width="40" height="30" as="geometry" />
        </mxCell>
        <mxCell id="CMjTgjLuKH6sScpRQb18-30" style="edgeStyle=orthogonalEdgeStyle;curved=0;rounded=1;sketch=0;orthogonalLoop=1;jettySize=auto;html=1;exitX=0.5;exitY=1;exitDx=0;exitDy=0;strokeColor=#23445D;" edge="1" parent="1" source="CMjTgjLuKH6sScpRQb18-27">
          <mxGeometry relative="1" as="geometry">
            <mxPoint x="770" y="290" as="targetPoint" />
          </mxGeometry>
        </mxCell>
        <mxCell id="CMjTgjLuKH6sScpRQb18-27" value="" style="rounded=1;whiteSpace=wrap;html=1;sketch=0;fontColor=#ffffff;strokeColor=#432D57;fillColor=#76608a;" vertex="1" parent="1">
          <mxGeometry x="750" y="215" width="40" height="30" as="geometry" />
        </mxCell>
        <mxCell id="CMjTgjLuKH6sScpRQb18-36" value="&lt;b style=&quot;font-size: 24px&quot;&gt;/&lt;/b&gt;" style="rounded=0;whiteSpace=wrap;html=1;sketch=0;strokeColor=#56517e;fillColor=#d0cee2;" vertex="1" parent="1">
          <mxGeometry x="640" y="290" width="60" height="40" as="geometry" />
        </mxCell>
        <mxCell id="CMjTgjLuKH6sScpRQb18-39" value="/&lt;font style=&quot;font-size: 12px&quot;&gt;joblist&lt;/font&gt;" style="rounded=0;whiteSpace=wrap;html=1;sketch=0;fontSize=24;strokeColor=#56517e;fillColor=#d0cee2;" vertex="1" parent="1">
          <mxGeometry x="680" y="360" width="80" height="40" as="geometry" />
        </mxCell>
        <mxCell id="CMjTgjLuKH6sScpRQb18-40" value="&lt;font style=&quot;font-size: 24px&quot;&gt;/&lt;/font&gt;company" style="rounded=0;whiteSpace=wrap;html=1;sketch=0;fontSize=12;strokeColor=#56517e;fillColor=#d0cee2;" vertex="1" parent="1">
          <mxGeometry x="740" y="290" width="70" height="40" as="geometry" />
        </mxCell>
        <mxCell id="CMjTgjLuKH6sScpRQb18-41" value="search()" style="rounded=1;whiteSpace=wrap;html=1;sketch=0;fontSize=24;strokeColor=#ae4132;fillColor=#fad9d5;" vertex="1" parent="1">
          <mxGeometry x="860" y="110" width="130" height="40" as="geometry" />
        </mxCell>
        <mxCell id="CMjTgjLuKH6sScpRQb18-44" value="isOpen()" style="rounded=1;whiteSpace=wrap;html=1;sketch=0;fontSize=24;strokeColor=#ae4132;fillColor=#fad9d5;" vertex="1" parent="1">
          <mxGeometry x="1200" y="210" width="120" height="40" as="geometry" />
        </mxCell>
        <mxCell id="CMjTgjLuKH6sScpRQb18-45" value="/&lt;font style=&quot;font-size: 12px&quot;&gt;notification&lt;/font&gt;" style="rounded=0;whiteSpace=wrap;html=1;sketch=0;fontSize=24;strokeColor=#56517e;fillColor=#d0cee2;" vertex="1" parent="1">
          <mxGeometry x="930" y="290" width="100" height="40" as="geometry" />
        </mxCell>
        <mxCell id="CMjTgjLuKH6sScpRQb18-47" value="&lt;font style=&quot;font-size: 24px&quot;&gt;isOpen()&lt;/font&gt;" style="rounded=1;whiteSpace=wrap;html=1;sketch=0;fontSize=12;strokeColor=#ae4132;fillColor=#fad9d5;" vertex="1" parent="1">
          <mxGeometry x="1025" y="120" width="120" height="40" as="geometry" />
        </mxCell>
        <mxCell id="CMjTgjLuKH6sScpRQb18-50" value="&lt;div&gt;&lt;font style=&quot;font-size: 24px&quot;&gt;&lt;font style=&quot;font-size: 24px&quot;&gt;&lt;font style=&quot;font-size: 24px&quot;&gt;/&lt;/font&gt;&lt;font style=&quot;font-size: 12px&quot;&gt;me&lt;/font&gt;&lt;/font&gt;&lt;/font&gt;&lt;/div&gt;" style="rounded=0;whiteSpace=wrap;html=1;sketch=0;fontSize=24;strokeColor=#56517e;fillColor=#d0cee2;" vertex="1" parent="1">
          <mxGeometry x="1200" y="280" width="80" height="40" as="geometry" />
        </mxCell>
        <mxCell id="CMjTgjLuKH6sScpRQb18-51" value="" style="swimlane;startSize=0;rounded=0;sketch=0;fontSize=12;strokeColor=#3A5431;fillColor=#6d8764;fontColor=#ffffff;" vertex="1" parent="1">
          <mxGeometry x="680" y="480" width="280" height="400" as="geometry" />
        </mxCell>
        <mxCell id="CMjTgjLuKH6sScpRQb18-52" value="&lt;div&gt;jumbotron.js&lt;/div&gt;" style="rounded=0;whiteSpace=wrap;html=1;sketch=0;fontSize=12;strokeColor=#82b366;fillColor=#d5e8d4;gradientColor=#97d077;" vertex="1" parent="CMjTgjLuKH6sScpRQb18-51">
          <mxGeometry width="280" height="140" as="geometry" />
        </mxCell>
        <mxCell id="CMjTgjLuKH6sScpRQb18-53" value="" style="rounded=0;whiteSpace=wrap;html=1;sketch=0;fontSize=12;strokeColor=#d79b00;fillColor=#ffcd28;gradientColor=#ffa500;" vertex="1" parent="CMjTgjLuKH6sScpRQb18-51">
          <mxGeometry y="280" width="280" height="120" as="geometry" />
        </mxCell>
        <mxCell id="CMjTgjLuKH6sScpRQb18-54" value="" style="rounded=0;whiteSpace=wrap;html=1;sketch=0;fontSize=12;fontColor=#FFFFFF;strokeColor=#FFFFFF;fillColor=#FFD966;" vertex="1" parent="CMjTgjLuKH6sScpRQb18-51">
          <mxGeometry x="10" y="290" width="70" height="100" as="geometry" />
        </mxCell>
        <mxCell id="CMjTgjLuKH6sScpRQb18-55" value="" style="rounded=0;whiteSpace=wrap;html=1;sketch=0;fontSize=12;fontColor=#FFFFFF;strokeColor=#FFFFFF;fillColor=#FFD966;" vertex="1" parent="CMjTgjLuKH6sScpRQb18-51">
          <mxGeometry x="105" y="290" width="70" height="100" as="geometry" />
        </mxCell>
        <mxCell id="CMjTgjLuKH6sScpRQb18-56" value="" style="rounded=0;whiteSpace=wrap;html=1;sketch=0;fontSize=12;fontColor=#FFFFFF;strokeColor=#FFFFFF;fillColor=#FFD966;" vertex="1" parent="CMjTgjLuKH6sScpRQb18-51">
          <mxGeometry x="200" y="290" width="70" height="100" as="geometry" />
        </mxCell>
        <mxCell id="CMjTgjLuKH6sScpRQb18-64" value="banner.js" style="rounded=0;whiteSpace=wrap;html=1;sketch=0;fontSize=12;strokeColor=#10739e;fillColor=#b1ddf0;" vertex="1" parent="CMjTgjLuKH6sScpRQb18-51">
          <mxGeometry y="140" width="280" height="140" as="geometry" />
        </mxCell>
        <mxCell id="CMjTgjLuKH6sScpRQb18-57" value="review.js" style="rounded=0;whiteSpace=wrap;html=1;sketch=0;fontSize=12;strokeColor=#d6b656;fillColor=#fff2cc;gradientColor=#ffd966;" vertex="1" parent="1">
          <mxGeometry x="990" y="910" width="100" height="140" as="geometry" />
        </mxCell>
        <mxCell id="CMjTgjLuKH6sScpRQb18-58" style="edgeStyle=orthogonalEdgeStyle;curved=0;rounded=1;sketch=0;orthogonalLoop=1;jettySize=auto;html=1;fontSize=12;strokeColor=#23445D;" edge="1" parent="1" source="CMjTgjLuKH6sScpRQb18-56">
          <mxGeometry relative="1" as="geometry">
            <mxPoint x="1040" y="910" as="targetPoint" />
            <Array as="points">
              <mxPoint x="1040" y="820" />
            </Array>
          </mxGeometry>
        </mxCell>
        <mxCell id="CMjTgjLuKH6sScpRQb18-59" value="reviews.js" style="rounded=0;whiteSpace=wrap;html=1;sketch=0;fontSize=12;strokeColor=#d79b00;fillColor=#ffcd28;gradientColor=#ffa500;" vertex="1" parent="1">
          <mxGeometry x="600" y="1000" width="80" height="40" as="geometry" />
        </mxCell>
        <mxCell id="CMjTgjLuKH6sScpRQb18-62" style="edgeStyle=orthogonalEdgeStyle;curved=0;rounded=1;sketch=0;orthogonalLoop=1;jettySize=auto;html=1;fontSize=12;strokeColor=#23445D;" edge="1" parent="1" source="CMjTgjLuKH6sScpRQb18-54" target="CMjTgjLuKH6sScpRQb18-59">
          <mxGeometry relative="1" as="geometry" />
        </mxCell>
        <mxCell id="CMjTgjLuKH6sScpRQb18-65" style="edgeStyle=orthogonalEdgeStyle;curved=0;rounded=1;sketch=0;orthogonalLoop=1;jettySize=auto;html=1;exitX=1;exitY=0.5;exitDx=0;exitDy=0;fontSize=12;fontColor=#000000;strokeColor=#23445D;" edge="1" parent="1" source="CMjTgjLuKH6sScpRQb18-12" target="CMjTgjLuKH6sScpRQb18-64">
          <mxGeometry relative="1" as="geometry" />
        </mxCell>
        <mxCell id="CMjTgjLuKH6sScpRQb18-68" value="&lt;font style=&quot;font-size: 24px&quot;&gt;/&lt;/font&gt;" style="whiteSpace=wrap;html=1;rounded=0;sketch=0;fontSize=12;strokeColor=#56517e;fillColor=#d0cee2;" vertex="1" parent="1">
          <mxGeometry x="380" y="350" width="80" height="40" as="geometry" />
        </mxCell>
        <mxCell id="CMjTgjLuKH6sScpRQb18-72" value="" style="rounded=0;whiteSpace=wrap;html=1;sketch=0;fontSize=24;fontColor=#000000;strokeColor=#FFFFFF;fillColor=#FFD966;" vertex="1" parent="1">
          <mxGeometry x="1120" y="480" width="280" height="400" as="geometry" />
        </mxCell>
        <mxCell id="CMjTgjLuKH6sScpRQb18-73" value="navbar.js" style="rounded=0;whiteSpace=wrap;html=1;sketch=0;fontColor=#000000;strokeColor=#BD7000;fillColor=#f0a30a;" vertex="1" parent="1">
          <mxGeometry x="1120" y="480" width="280" height="60" as="geometry" />
        </mxCell>
        <mxCell id="CMjTgjLuKH6sScpRQb18-74" value="&lt;div&gt;post&lt;/div&gt;" style="whiteSpace=wrap;html=1;aspect=fixed;rounded=0;sketch=0;fontSize=24;strokeColor=#10739e;fillColor=#b1ddf0;" vertex="1" parent="1">
          <mxGeometry x="1150" y="550" width="100" height="100" as="geometry" />
        </mxCell>
        <mxCell id="CMjTgjLuKH6sScpRQb18-75" value="" style="whiteSpace=wrap;html=1;aspect=fixed;rounded=0;sketch=0;fontSize=24;strokeColor=#10739e;fillColor=#b1ddf0;" vertex="1" parent="1">
          <mxGeometry x="1270" y="550" width="100" height="100" as="geometry" />
        </mxCell>
        <mxCell id="CMjTgjLuKH6sScpRQb18-76" value="" style="whiteSpace=wrap;html=1;aspect=fixed;rounded=0;sketch=0;fontSize=24;strokeColor=#10739e;fillColor=#b1ddf0;" vertex="1" parent="1">
          <mxGeometry x="1150" y="670" width="100" height="100" as="geometry" />
        </mxCell>
        <mxCell id="CMjTgjLuKH6sScpRQb18-80" value="" style="edgeStyle=orthogonalEdgeStyle;curved=0;rounded=1;sketch=0;orthogonalLoop=1;jettySize=auto;html=1;fontSize=24;fontColor=#000000;strokeColor=#23445D;entryX=1;entryY=0.5;entryDx=0;entryDy=0;" edge="1" parent="1" source="CMjTgjLuKH6sScpRQb18-77" target="CMjTgjLuKH6sScpRQb18-78">
          <mxGeometry relative="1" as="geometry">
            <mxPoint x="1440" y="1010" as="targetPoint" />
            <Array as="points">
              <mxPoint x="1440" y="720" />
              <mxPoint x="1440" y="1045" />
            </Array>
          </mxGeometry>
        </mxCell>
        <mxCell id="CMjTgjLuKH6sScpRQb18-77" value="" style="whiteSpace=wrap;html=1;aspect=fixed;rounded=0;sketch=0;fontSize=24;strokeColor=#10739e;fillColor=#b1ddf0;" vertex="1" parent="1">
          <mxGeometry x="1270" y="670" width="100" height="100" as="geometry" />
        </mxCell>
        <mxCell id="CMjTgjLuKH6sScpRQb18-78" value="content" style="rounded=0;whiteSpace=wrap;html=1;sketch=0;fontSize=24;strokeColor=#0e8088;fillColor=#b0e3e6;" vertex="1" parent="1">
          <mxGeometry x="1120" y="920" width="280" height="250" as="geometry" />
        </mxCell>
        <mxCell id="CMjTgjLuKH6sScpRQb18-81" value="&lt;div&gt;post&lt;/div&gt;" style="whiteSpace=wrap;html=1;aspect=fixed;rounded=0;sketch=0;fontSize=24;strokeColor=#10739e;fillColor=#b1ddf0;" vertex="1" parent="1">
          <mxGeometry x="1270" y="550" width="100" height="100" as="geometry" />
        </mxCell>
        <mxCell id="CMjTgjLuKH6sScpRQb18-82" value="&lt;div&gt;post&lt;/div&gt;" style="whiteSpace=wrap;html=1;aspect=fixed;rounded=0;sketch=0;fontSize=24;strokeColor=#10739e;fillColor=#b1ddf0;" vertex="1" parent="1">
          <mxGeometry x="1150" y="670" width="100" height="100" as="geometry" />
        </mxCell>
        <mxCell id="CMjTgjLuKH6sScpRQb18-83" value="&lt;div&gt;post&lt;/div&gt;" style="whiteSpace=wrap;html=1;aspect=fixed;rounded=0;sketch=0;fontSize=24;strokeColor=#10739e;fillColor=#b1ddf0;" vertex="1" parent="1">
          <mxGeometry x="1270" y="670" width="100" height="100" as="geometry" />
        </mxCell>
        <mxCell id="CMjTgjLuKH6sScpRQb18-85" value="&lt;div style=&quot;font-size: 20px&quot;&gt;&lt;font style=&quot;font-size: 20px&quot;&gt;footer.js&lt;/font&gt;&lt;/div&gt;" style="whiteSpace=wrap;html=1;aspect=fixed;rounded=0;sketch=0;fontColor=#000000;strokeColor=#B09500;fillColor=#e3c800;" vertex="1" parent="1">
          <mxGeometry x="1121.5" y="820" width="278.5" height="79.57" as="geometry" />
        </mxCell>
        <mxCell id="CMjTgjLuKH6sScpRQb18-86" value="pagination.js" style="rounded=0;whiteSpace=wrap;html=1;sketch=0;fontSize=24;fontColor=#ffffff;strokeColor=#B20000;fillColor=#e51400;" vertex="1" parent="1">
          <mxGeometry x="1120" y="790" width="280" height="30" as="geometry" />
        </mxCell>
        <mxCell id="CMjTgjLuKH6sScpRQb18-87" value="post.js" style="rounded=0;whiteSpace=wrap;html=1;sketch=0;fontSize=20;fontColor=#ffffff;strokeColor=#314354;fillColor=#647687;" vertex="1" parent="1">
          <mxGeometry x="1121.5" y="920" width="278.5" height="40" as="geometry" />
        </mxCell>
      </root>
    </mxGraphModel>
  </diagram>
</mxfile>
